<svg
    width="35"
    height="35"
    viewBox="0 0 51 51"
    fill="none"
    xmlns="http://www.w3.org/2000/svg"
>
    <path
        d="M17.1966 5.57812C10.7905 5.57812 5.57812 10.7936 5.57812 17.2013V33.8018C5.57812 40.2087 10.7936 45.4219 17.2013 45.4219H33.8018C40.2087 45.4219 45.4219 40.2064 45.4219 33.7987V17.1966C45.4219 10.7905 40.2064 5.57812 33.7987 5.57812H17.1966ZM37.4531 11.9531C38.3329 11.9531 39.0469 12.6671 39.0469 13.5469C39.0469 14.4266 38.3329 15.1406 37.4531 15.1406C36.5734 15.1406 35.8594 14.4266 35.8594 13.5469C35.8594 12.6671 36.5734 11.9531 37.4531 11.9531ZM25.5 15.1406C31.2136 15.1406 35.8594 19.7864 35.8594 25.5C35.8594 31.2136 31.2128 35.8594 25.5 35.8594C19.7864 35.8594 15.1406 31.2128 15.1406 25.5C15.1406 19.7872 19.7864 15.1406 25.5 15.1406ZM25.5 18.3281C21.5387 18.3281 18.3281 21.5387 18.3281 25.5C18.3281 29.4613 21.5387 32.6719 25.5 32.6719C29.4613 32.6719 32.6719 29.4613 32.6719 25.5C32.6719 21.5387 29.4613 18.3281 25.5 18.3281Z"
        fill="#EFECE8"
    />
</svg>